<svg width="22" height="22" viewBox="0 0 22 22" fill="none" xmlns="http://www.w3.org/2000/svg">
<path d="M22 11C22 17.0751 17.0751 22 11 22C4.92487 22 0 17.0751 0 11C0 4.92487 4.92487 0 11 0C17.0751 0 22 4.92487 22 11Z" fill="#F97262"/>
<path d="M12.1729 4.37634C12.1976 4.29218 12.2579 4.22041 12.3405 4.17679C12.423 4.13318 12.5212 4.12127 12.6134 4.1437C13.4877 4.35842 14.2849 4.7792 14.925 5.36387C15.5652 5.94855 16.0259 6.6766 16.261 7.47508C16.2735 7.51686 16.2769 7.56048 16.2708 7.60344C16.2648 7.6464 16.2496 7.68785 16.226 7.7254C16.2023 7.76296 16.1708 7.79588 16.1332 7.82227C16.0956 7.84866 16.0527 7.868 16.0069 7.87918C15.961 7.89036 15.9133 7.89316 15.8663 7.88742C15.8193 7.88168 15.774 7.8675 15.733 7.84572C15.692 7.82393 15.6561 7.79496 15.6275 7.76047C15.5988 7.72598 15.5778 7.68665 15.5659 7.64474C15.3636 6.95778 14.9672 6.33141 14.4164 5.8284C13.8657 5.32538 13.1798 4.96338 12.4276 4.77864C12.382 4.76751 12.3392 4.74826 12.3017 4.72202C12.2642 4.69577 12.2327 4.66304 12.209 4.62568C12.1854 4.58832 12.17 4.54707 12.1638 4.50429C12.1576 4.46151 12.1607 4.41803 12.1729 4.37634ZM11.9309 6.4718C12.3578 6.57662 12.747 6.78206 13.0596 7.06754C13.3722 7.35303 13.5972 7.70852 13.7119 8.09841C13.7366 8.18261 13.7968 8.25442 13.8794 8.29805C13.962 8.34168 14.0603 8.35355 14.1524 8.33105C14.2446 8.30855 14.3233 8.25353 14.371 8.17808C14.4188 8.10264 14.4318 8.01295 14.4072 7.92875C14.2596 7.42735 13.9702 6.97017 13.5683 6.60303C13.1663 6.23589 12.6657 5.97168 12.1167 5.83686C12.071 5.82572 12.0234 5.8229 11.9766 5.82856C11.9297 5.83422 11.8846 5.84826 11.8437 5.86986C11.761 5.91349 11.7008 5.9853 11.6762 6.0695C11.6515 6.15369 11.6645 6.24338 11.7123 6.31883C11.7601 6.39427 11.8387 6.4493 11.9309 6.4718ZM16.7273 11.845C16.6268 12.5585 16.2454 13.2142 15.6542 13.6896C15.063 14.165 14.3026 14.4276 13.5149 14.4283C8.81977 14.4283 5 10.9398 5 6.65175C5.0008 5.93239 5.28832 5.23789 5.80884 4.69799C6.32935 4.15808 7.04728 3.8097 7.82851 3.71791C8.00886 3.69808 8.1914 3.73211 8.34882 3.8149C8.50624 3.89769 8.63008 4.0248 8.70183 4.17722L9.90656 6.74447C9.96126 6.86066 9.98357 6.98742 9.9715 7.11341C9.95942 7.2394 9.91334 7.36069 9.83737 7.46643L8.8398 8.85849C8.82853 8.87346 8.82168 8.89085 8.81992 8.90896C8.81817 8.92706 8.82157 8.94528 8.82979 8.96183C9.29267 9.82423 10.0583 10.5203 11.0047 10.9392C11.0229 10.9466 11.0429 10.9496 11.0628 10.9479C11.0827 10.9461 11.1017 10.9397 11.1181 10.9292L12.6193 10.0149C12.7354 9.94397 12.8691 9.90066 13.0082 9.88899C13.1474 9.87732 13.2875 9.89766 13.4158 9.94814L16.2243 11.0475C16.3912 11.113 16.5304 11.2261 16.6211 11.3698C16.7117 11.5136 16.749 11.6803 16.7273 11.845ZM16.0134 11.7626C16.016 11.7394 16.0104 11.7161 15.9973 11.696C15.9843 11.676 15.9644 11.6604 15.9408 11.6515L13.1323 10.5522C13.114 10.545 13.094 10.5421 13.0741 10.5438C13.0542 10.5455 13.0351 10.5516 13.0185 10.5617L11.5173 11.476C11.3967 11.5497 11.2573 11.5935 11.1125 11.6031C10.9678 11.6128 10.8229 11.5879 10.6919 11.531C9.60026 11.0479 8.71713 10.245 8.1832 9.25022C8.1206 9.13127 8.09273 8.99956 8.10229 8.86787C8.11185 8.73619 8.15852 8.60899 8.23776 8.49863L9.23527 7.10652C9.24613 7.0914 9.25272 7.07406 9.25445 7.05604C9.25618 7.03802 9.25298 7.0199 9.24516 7.00329L8.04048 4.43615C8.03154 4.41659 8.01655 4.39983 7.99735 4.38793C7.97815 4.37603 7.95557 4.36949 7.93237 4.36911C7.92781 4.36912 7.92327 4.3694 7.91875 4.36994C7.31124 4.44138 6.75298 4.71238 6.34827 5.1323C5.94356 5.55222 5.72007 6.09233 5.71957 6.65175C5.7219 8.53928 6.54394 10.3489 8.00535 11.6836C9.46675 13.0182 11.4482 13.769 13.5149 13.7711C14.1274 13.7707 14.7188 13.5666 15.1786 13.197C15.6384 12.8273 15.9351 12.3175 16.0134 11.7626Z" fill="white"/>
</svg>
